<?xml version="1.0" standalone="no"?>
<!DOCTYPE svg PUBLIC "-//W3C//DTD SVG 20010904//EN"
 "http://www.w3.org/TR/2001/REC-SVG-20010904/DTD/svg10.dtd">
<svg version="1.0" xmlns="http://www.w3.org/2000/svg"
 width="1024.000000pt" height="1024.000000pt" viewBox="0 0 1024.000000 1024.000000"
 preserveAspectRatio="xMidYMid meet">
<metadata>
Created by potrace 1.11, written by Peter Selinger 2001-2013
</metadata>
<g transform="translate(0.000000,1024.000000) scale(0.100000,-0.100000)"
fill="#000000" stroke="none">
<path d="M4997 10083 c-4 -4 -44 -8 -90 -9 -112 -3 -246 -13 -367 -28 -19 -2
-57 -7 -85 -10 -49 -7 -85 -13 -95 -16 -3 -1 -9 -2 -14 -1 -5 1 -32 -3 -60 -9
-28 -5 -67 -12 -86 -14 -19 -3 -36 -6 -37 -7 -4 -2 -11 -4 -63 -14 -52 -10
-59 -12 -62 -14 -2 -2 -14 -4 -28 -6 -52 -8 -270 -68 -405 -111 -77 -25 -144
-47 -150 -47 -5 -1 -12 -4 -15 -7 -3 -3 -38 -16 -77 -30 -40 -13 -73 -29 -73
-34 0 -5 -3 -7 -6 -4 -6 7 -90 -26 -211 -84 -49 -22 -95 -42 -103 -44 -8 -2
-16 -8 -18 -13 -2 -6 -11 -11 -20 -12 -9 0 -48 -18 -87 -39 -38 -22 -101 -55
-138 -75 -173 -91 -539 -337 -684 -461 -12 -11 -36 -30 -54 -44 -45 -35 -86
-70 -125 -107 -19 -17 -34 -29 -34 -26 0 9 -363 -359 -404 -409 -21 -26 -52
-62 -68 -80 -17 -18 -46 -53 -67 -78 -20 -25 -39 -46 -43 -48 -5 -2 -8 -10 -8
-17 0 -7 -4 -15 -8 -17 -31 -12 -372 -514 -372 -547 0 -6 -4 -11 -9 -11 -5 0
-11 -8 -14 -17 -4 -10 -24 -49 -46 -88 -63 -112 -159 -309 -218 -450 -30 -71
-60 -143 -68 -160 -7 -16 -16 -41 -20 -55 -3 -14 -10 -34 -15 -45 -10 -26 -52
-145 -55 -159 -1 -6 -5 -18 -8 -26 -8 -23 -27 -85 -32 -106 -2 -10 -10 -40
-18 -66 -8 -27 -13 -48 -10 -48 3 0 0 -7 -7 -15 -7 -8 -10 -15 -7 -15 3 0 1
-15 -4 -32 -5 -18 -12 -46 -15 -62 -2 -16 -8 -34 -11 -40 -4 -6 -8 -22 -9 -36
-1 -14 -9 -58 -18 -98 -9 -40 -18 -89 -21 -110 -2 -20 -7 -48 -10 -62 -3 -14
-8 -45 -11 -70 -2 -25 -6 -52 -9 -60 -2 -8 -7 -46 -10 -85 -4 -38 -8 -77 -10
-85 -26 -99 -26 -811 0 -995 3 -22 7 -60 9 -85 2 -25 7 -61 10 -80 3 -19 8
-51 11 -70 2 -19 7 -48 10 -65 3 -16 7 -46 9 -65 3 -19 5 -35 6 -35 2 0 8 -30
15 -70 12 -79 20 -114 28 -135 3 -8 13 -46 21 -85 9 -38 19 -81 22 -95 4 -14
7 -31 7 -37 0 -7 4 -13 9 -13 4 0 8 -11 8 -25 0 -13 4 -34 9 -47 5 -13 19 -54
31 -93 11 -38 24 -77 27 -85 3 -8 7 -19 9 -25 4 -16 26 -78 35 -100 5 -11 25
-63 45 -115 37 -95 64 -160 90 -214 8 -16 14 -35 14 -43 0 -7 4 -13 8 -13 5 0
15 -18 22 -40 7 -22 18 -40 23 -40 6 0 8 -3 4 -6 -5 -5 32 -81 101 -204 14
-25 34 -63 46 -85 12 -22 23 -42 26 -45 3 -3 31 -48 63 -100 32 -52 63 -104
70 -114 7 -11 20 -29 29 -40 10 -11 20 -28 24 -38 3 -10 10 -18 15 -18 5 0 9
-4 9 -9 0 -16 171 -241 183 -241 6 0 7 -3 4 -6 -4 -4 8 -24 26 -44 17 -20 52
-61 77 -91 145 -174 408 -435 576 -574 26 -22 59 -50 73 -62 34 -30 30 -26
151 -117 58 -42 113 -84 122 -91 9 -7 27 -19 40 -26 13 -6 25 -15 28 -18 11
-14 323 -211 334 -211 1 0 51 -27 110 -60 59 -33 114 -60 122 -60 8 0 14 -4
14 -9 0 -5 9 -13 21 -16 11 -4 62 -26 112 -49 51 -23 117 -53 147 -65 30 -13
67 -30 83 -38 15 -8 27 -11 27 -7 0 3 11 -1 25 -10 14 -9 25 -14 25 -10 0 4 7
1 15 -6 8 -7 15 -9 15 -5 0 4 11 0 25 -9 13 -9 33 -16 43 -16 10 0 22 -3 26
-8 4 -4 11 -7 14 -8 4 0 14 -3 22 -7 18 -7 242 -76 268 -82 9 -3 79 -20 154
-39 120 -31 263 -62 323 -71 11 -2 38 -6 60 -9 129 -21 218 -33 296 -40 26 -2
52 -7 58 -10 6 -4 11 -2 11 4 0 6 5 8 13 3 14 -9 51 -12 208 -16 63 -2 121 -7
127 -11 7 -4 12 -3 12 2 0 7 37 9 48 2 7 -5 71 -3 85 3 9 3 19 2 22 -4 4 -5
11 -6 18 -2 6 4 61 8 122 9 60 1 137 5 170 9 33 3 87 8 120 11 69 7 79 8 160
18 70 9 100 14 100 16 0 1 9 3 20 4 84 11 177 27 250 45 22 5 51 12 65 15 41
8 61 13 150 36 47 12 90 23 95 25 6 1 17 5 25 8 8 4 26 9 40 11 14 3 25 5 25
6 0 1 7 3 15 5 23 6 112 36 135 45 11 4 56 20 100 36 44 15 91 32 105 37 14 6
27 11 30 12 3 1 17 7 33 13 39 17 71 30 77 30 6 1 220 100 290 135 25 12 48
27 52 32 4 6 8 7 8 3 0 -4 39 15 86 42 47 28 88 50 90 50 3 0 29 15 58 33 28
17 61 37 72 44 142 87 476 320 504 353 3 3 28 23 55 45 28 22 57 46 66 55 10
8 38 33 64 55 55 46 385 373 430 425 17 20 52 62 79 95 27 33 56 66 65 73 8 6
12 12 8 12 -3 0 6 13 21 29 78 83 295 400 412 601 93 161 250 473 250 498 0 6
5 12 12 12 6 0 9 3 5 6 -3 4 1 21 10 38 10 17 17 33 18 36 0 3 19 55 42 115
43 116 54 147 54 155 1 3 4 10 8 15 11 15 91 276 96 312 2 12 6 27 10 33 3 5
8 20 11 33 8 46 12 64 29 126 9 35 18 77 20 92 2 16 6 36 9 46 3 10 7 34 10
53 3 19 8 46 11 60 2 13 7 40 10 60 3 20 7 45 9 56 2 12 7 45 10 75 4 30 9 70
11 89 6 45 13 112 22 225 10 117 10 614 0 730 -10 115 -13 138 -32 297 -14
114 -78 453 -85 453 -1 0 -3 11 -5 25 -2 14 -8 43 -14 65 -7 22 -13 45 -15 50
-1 6 -8 36 -16 68 -7 31 -17 57 -22 57 -5 0 -7 4 -4 9 11 17 -128 409 -201
571 -28 61 -46 102 -48 110 -4 17 -152 302 -200 385 -32 55 -63 109 -69 120
-6 11 -13 22 -16 25 -3 3 -26 38 -50 78 -25 39 -48 72 -52 72 -5 0 -8 6 -8 14
0 8 -6 21 -13 28 -7 7 -33 42 -57 78 -25 36 -47 67 -50 70 -3 3 -28 34 -55 70
-61 79 -76 98 -95 119 -8 9 -33 39 -55 66 -125 155 -462 489 -603 600 -14 11
-33 27 -41 35 -9 8 -32 26 -51 40 -19 13 -37 27 -40 30 -11 12 -140 110 -145
110 -3 0 -11 5 -18 10 -48 40 -66 54 -99 72 -21 12 -38 25 -38 30 0 4 -5 8
-11 8 -6 0 -25 11 -43 25 -18 14 -38 25 -44 25 -7 0 -12 5 -12 10 0 6 -4 10
-10 10 -5 0 -36 17 -67 37 -32 21 -71 45 -88 54 -16 8 -64 34 -105 57 -99 55
-338 171 -415 202 -11 4 -36 15 -55 23 -88 39 -152 62 -320 119 -147 50 -389
119 -465 132 -16 3 -59 13 -95 21 -36 8 -80 17 -99 20 -18 2 -41 6 -50 9 -14
4 -46 9 -138 21 -13 2 -42 6 -65 10 -24 4 -63 9 -88 12 -25 2 -63 6 -85 8
-113 11 -199 17 -285 19 -53 1 -101 6 -108 10 -7 4 -12 3 -12 -2 0 -10 -36 -9
-46 1 -4 3 -16 1 -28 -5 -11 -6 -21 -11 -21 -11 0 0 -10 5 -22 12 -13 6 -23 8
-23 3 0 -10 -53 -10 -61 1 -3 4 -9 4 -12 0z m274 -1003 c84 -43 159 -101 240
-187 103 -109 244 -303 301 -415 12 -24 25 -45 29 -48 14 -10 177 -357 224
-475 26 -66 51 -128 56 -137 5 -10 9 -22 9 -27 0 -5 5 -22 12 -38 6 -15 12
-30 13 -33 1 -3 7 -18 13 -33 7 -15 11 -31 10 -35 -1 -4 2 -16 6 -27 20 -52
22 -57 30 -92 3 -10 5 -18 6 -18 1 0 3 -7 5 -15 2 -8 18 -60 34 -115 17 -55
31 -108 31 -117 0 -10 4 -18 10 -18 5 0 7 -6 4 -13 -3 -8 2 -34 10 -58 8 -24
18 -59 21 -78 3 -19 7 -37 9 -40 2 -3 7 -22 10 -41 3 -19 10 -50 15 -67 5 -18
7 -33 4 -33 -3 0 0 -6 6 -14 19 -23 5 -26 -91 -26 -10 0 -24 0 -30 1 -7 0 -22
0 -33 -1 -16 0 -127 -1 -212 0 -18 0 -59 -1 -85 -1 -13 0 -36 0 -53 0 -16 1
-37 1 -45 1 -8 -1 -40 0 -70 0 -30 1 -59 1 -65 0 -5 -2 -14 -1 -20 0 -5 1 -35
1 -65 1 -58 -1 -76 -2 -112 -1 -13 0 -34 -1 -48 -3 -14 -2 -36 0 -50 3 -14 4
-37 3 -52 -1 -16 -4 -28 -4 -28 1 0 4 -16 4 -34 0 -19 -4 -37 -5 -41 -2 -3 3
-31 4 -63 3 -64 -2 -66 -2 -107 -2 -16 1 -37 1 -45 1 -23 -1 -121 0 -160 1
-19 0 -41 0 -47 0 -27 -2 -39 -2 -68 -2 -16 1 -37 1 -45 1 -8 -1 -40 0 -70 0
-30 0 -70 0 -89 0 -19 0 -36 2 -38 4 -3 3 -15 1 -27 -3 -11 -4 -32 -5 -46 -1
-14 4 -37 3 -52 -1 -16 -4 -28 -4 -28 1 0 4 -16 4 -34 0 -19 -4 -37 -5 -40 -2
-4 4 -133 4 -191 1 -5 0 -21 0 -35 0 -14 1 -60 1 -103 1 -42 -1 -82 2 -88 6
-7 4 -8 18 -4 38 4 17 8 40 10 51 2 11 13 58 25 105 12 47 24 93 26 103 7 29
12 49 29 112 9 33 18 65 19 70 2 6 11 36 20 69 10 32 19 64 20 70 8 33 20 72
26 81 5 8 30 82 35 105 3 14 29 89 40 115 7 17 34 84 60 150 27 66 64 154 83
195 20 41 34 77 33 79 -2 2 1 7 6 10 4 3 28 47 53 96 24 50 59 114 77 143 18
29 33 55 33 58 0 2 5 10 10 17 6 7 35 50 66 97 139 209 297 365 434 428 86 40
84 40 166 37 56 -2 83 -9 135 -35z m-1818 -402 c-55 -113 -106 -221 -107 -228
-1 -3 -18 -45 -39 -95 -63 -150 -72 -171 -120 -305 -37 -103 -112 -337 -123
-385 -4 -16 -9 -34 -13 -40 -6 -10 -6 -13 -16 -57 -3 -15 -10 -39 -15 -53 -5
-14 -7 -25 -4 -25 2 0 0 -8 -5 -18 -6 -11 -12 -30 -14 -43 -3 -13 -10 -42 -15
-64 -6 -22 -13 -51 -16 -65 -3 -14 -21 -98 -41 -188 -31 -141 -41 -199 -44
-236 -1 -5 -7 -3 -14 3 -8 6 -16 9 -19 6 -2 -3 -22 -5 -44 -5 -105 0 -142 0
-174 1 -19 0 -41 0 -47 0 -27 -2 -39 -2 -68 -2 -16 1 -37 1 -45 1 -23 -1 -121
0 -160 1 -19 0 -41 0 -47 0 -27 -2 -39 -2 -68 -2 -16 1 -37 1 -45 1 -8 -1 -40
0 -70 0 -30 0 -70 0 -89 0 -19 0 -36 2 -38 4 -3 3 -15 1 -27 -3 -11 -4 -32 -5
-46 -1 -14 4 -37 3 -52 -1 -16 -4 -28 -4 -28 1 0 4 -16 4 -35 0 -19 -4 -35 -5
-35 -1 0 3 -45 5 -99 4 l-99 -2 22 42 c11 23 23 44 26 47 3 3 15 25 27 50 44
88 150 261 167 272 6 4 7 8 3 8 -4 0 11 25 33 55 22 30 40 58 40 64 0 5 3 11
8 13 4 2 32 36 62 77 163 222 435 511 622 663 23 18 52 42 64 53 12 11 35 29
50 40 15 11 32 25 38 31 6 5 61 45 121 87 61 42 116 81 123 87 6 6 12 8 12 4
0 -4 9 1 20 11 23 21 57 42 83 51 9 3 17 10 17 15 0 5 4 9 9 9 6 0 27 10 47
23 59 35 348 185 360 186 7 0 -8 -40 -33 -91z m3405 40 c59 -28 161 -82 226
-120 66 -37 123 -68 128 -68 4 0 8 -4 8 -10 0 -5 5 -10 10 -10 16 0 300 -197
367 -255 6 -5 28 -23 49 -40 250 -204 566 -539 704 -747 14 -21 28 -38 33 -38
4 0 7 -6 7 -12 0 -7 11 -26 25 -42 13 -16 27 -37 30 -47 4 -11 11 -19 16 -19
5 0 9 -6 9 -13 0 -7 8 -22 18 -33 10 -10 21 -26 25 -34 4 -8 18 -33 32 -55 14
-22 30 -51 37 -65 7 -14 15 -27 19 -30 3 -3 20 -34 38 -70 18 -36 41 -79 51
-97 l19 -32 -40 1 c-22 0 -42 -2 -45 -5 -3 -2 -21 -1 -40 3 -18 4 -34 4 -34 0
0 -4 -15 -5 -32 -1 -18 3 -46 5 -63 4 -40 -4 -46 -4 -70 -3 -27 1 -87 1 -102
1 -14 -1 -31 -1 -68 -2 -14 0 -35 0 -47 0 -13 0 -36 0 -53 0 -16 1 -37 1 -45
1 -8 -1 -40 0 -70 0 -30 1 -59 1 -65 0 -5 -2 -14 -1 -20 0 -5 1 -35 1 -65 1
-58 -1 -76 -2 -112 -1 -13 0 -34 -1 -48 -3 -14 -2 -37 0 -51 4 -15 4 -32 3
-40 -1 -7 -5 -20 -5 -28 -1 -8 5 -26 5 -40 1 -14 -4 -35 -4 -46 0 -11 4 -32 4
-47 -1 -16 -4 -28 -4 -28 1 0 4 -9 6 -19 3 -24 -6 -36 15 -46 82 -5 28 -9 55
-11 60 -5 20 -15 71 -18 90 -5 28 -34 152 -46 200 -6 22 -13 51 -16 65 -2 14
-9 39 -15 56 -5 17 -12 41 -14 54 -2 12 -12 48 -21 79 -10 31 -18 61 -19 66
-1 8 -20 76 -39 140 -2 6 -4 13 -5 17 -1 4 -9 27 -17 50 -9 24 -17 50 -19 58
-11 41 -82 234 -126 343 -27 67 -51 127 -53 132 -4 15 -21 52 -52 120 -15 33
-27 63 -26 68 1 4 -1 7 -5 7 -5 0 -19 27 -33 60 -14 33 -28 60 -32 60 -5 0 -8
7 -8 15 0 9 -7 27 -16 40 -9 14 -13 25 -9 25 4 0 55 -23 113 -52z m-5448
-2799 c3 -1 9 -1 14 0 12 3 98 3 111 1 6 -1 35 -1 65 -1 155 3 286 3 295 1 6
-1 15 -1 20 0 6 1 30 1 55 1 53 -1 114 -1 270 0 63 0 120 -1 125 -2 6 -1 14
-1 19 0 14 3 99 3 111 1 6 -1 14 -2 19 -1 10 2 202 1 228 -1 11 -1 15 -8 12
-24 -2 -13 -6 -58 -9 -101 -2 -43 -4 -78 -5 -78 -2 0 -12 -241 -13 -332 -1
-51 -5 -93 -9 -93 -4 0 -3 -11 2 -25 6 -17 6 -25 -1 -25 -6 0 -7 -5 -3 -12 9
-14 12 -58 4 -58 -7 0 -4 -80 4 -87 3 -3 1 -14 -5 -24 -5 -11 -6 -19 -2 -19 4
0 9 -66 10 -148 1 -127 10 -387 13 -387 1 0 3 -29 6 -65 2 -36 6 -71 9 -77 2
-7 -1 -13 -8 -14 -9 0 -9 -2 1 -6 36 -14 -14 -22 -144 -22 -80 -1 -150 -3
-155 -6 -5 -4 -9 -3 -9 2 0 4 -57 7 -127 6 -104 -2 -273 -3 -353 -2 -8 0 -24
0 -35 -1 -11 -1 -78 -1 -150 -1 -71 1 -167 0 -213 -2 -45 -1 -82 0 -82 3 0 3
-63 4 -140 2 -77 -1 -140 1 -141 5 0 5 -2 15 -4 23 -10 46 -16 79 -21 115 -5
44 -12 80 -14 80 -1 0 -3 23 -6 50 -6 58 -12 110 -14 110 -3 0 -22 355 -21
390 0 6 2 34 3 63 2 28 -1 52 -5 52 -5 0 -5 4 -2 10 3 5 8 47 11 92 6 125 13
223 18 260 3 18 7 54 11 79 3 25 8 59 12 75 3 16 6 44 7 62 0 17 4 32 8 32 4
0 7 3 6 8 -1 4 1 26 5 49 l7 42 53 3 c49 3 146 1 157 -3z m2382 -4 c5 5 152 9
173 5 6 -1 14 -2 19 -1 12 3 98 3 111 1 6 -1 35 -1 65 -1 155 3 286 3 295 1 6
-1 15 -1 20 0 6 1 30 1 55 1 53 -1 114 -1 270 0 63 0 120 -1 125 -2 6 -1 14
-1 19 0 14 3 99 3 111 1 6 -1 14 -2 18 -1 14 2 212 3 222 1 6 -1 14 -2 19 -1
13 3 289 3 301 1 6 -1 14 -2 19 -1 13 3 238 3 251 0 6 -1 14 -1 19 0 12 3 98
3 111 1 6 -1 35 -1 65 -1 155 3 286 3 295 1 6 -1 15 -1 20 0 6 1 28 1 50 1 86
-2 82 0 83 -45 1 -22 3 -66 6 -96 10 -108 18 -257 20 -345 1 -49 5 -96 9 -102
5 -7 5 -13 0 -13 -7 0 -9 -52 -3 -70 6 -17 4 -239 -2 -258 -5 -15 -4 -21 2
-17 7 4 7 -2 0 -19 -6 -16 -6 -27 1 -31 5 -4 6 -12 2 -18 -4 -6 -8 -47 -9 -92
-4 -118 -25 -449 -33 -497 0 -4 -12 -3 -25 2 -13 5 -26 7 -28 5 -5 -5 -53 -6
-213 -6 -71 1 -167 0 -213 -2 -45 -1 -82 0 -82 3 0 3 -42 4 -92 3 -51 -2 -135
-4 -186 -5 -50 -2 -92 0 -92 3 0 3 -12 4 -27 2 -46 -6 -293 -8 -293 -3 0 3
-61 3 -135 0 -74 -3 -135 -3 -135 0 0 3 -57 4 -127 3 -104 -2 -273 -3 -353 -2
-8 0 -24 0 -35 -1 -11 -1 -78 -1 -150 -1 -71 1 -167 0 -213 -2 -45 -1 -82 0
-82 3 0 3 -64 4 -142 2 -182 -3 -184 -3 -183 45 0 21 -1 42 -4 47 -2 5 -5 34
-7 65 -1 31 -5 106 -9 166 -4 61 -8 169 -9 240 -1 72 -6 136 -10 143 -4 7 -4
12 1 12 4 0 8 11 8 25 0 14 -3 25 -7 25 -4 0 -3 13 2 30 5 18 5 32 -1 36 -5 3
-6 11 -2 17 10 17 11 47 1 47 -5 0 -6 5 -2 11 4 6 8 64 10 128 1 64 6 168 9
231 4 63 8 135 9 160 1 25 6 51 10 58 4 7 2 12 -5 12 -7 0 -8 5 -3 13 5 6 9
28 9 47 0 29 4 36 25 41 14 3 30 2 36 -3 6 -4 13 -6 16 -3z m3873 6 c33 -1
114 -1 180 0 66 1 125 0 130 -1 6 -1 15 -1 20 0 6 1 30 1 55 1 25 -1 72 -1
105 -1 33 0 89 0 125 0 36 -1 71 -1 78 -1 100 2 249 3 257 1 6 -1 15 -1 20 0
6 1 30 1 55 1 69 -1 149 -1 215 0 145 3 140 7 160 -136 4 -31 10 -75 19 -135
5 -35 12 -92 21 -180 4 -36 16 -300 17 -345 0 -89 -17 -373 -26 -445 -3 -19
-8 -55 -11 -80 -3 -25 -7 -56 -9 -70 -3 -14 -7 -43 -11 -65 -22 -155 -15 -144
-93 -144 -37 0 -114 0 -172 0 -58 0 -112 0 -120 0 -8 0 -24 0 -35 -1 -16 -1
-195 -2 -302 -1 -28 0 -143 0 -193 0 -25 0 -65 0 -90 0 -25 1 -52 1 -60 0 -8
0 -60 0 -115 0 -55 1 -158 1 -230 1 -176 0 -171 -1 -166 46 8 100 18 280 22
402 1 40 6 75 11 78 5 3 5 11 0 17 -10 14 -9 77 1 94 4 6 3 14 -1 17 -9 6 -8
48 1 63 3 5 2 15 -2 22 -5 7 -5 28 -1 46 4 18 4 39 0 45 -4 7 -4 26 0 41 5 16
5 29 1 29 -5 0 -6 12 -4 28 2 15 4 32 3 37 0 6 -2 51 -4 100 -13 303 -18 387
-28 505 -3 31 10 36 76 33 23 -1 68 -2 101 -2z m-5962 -2565 c9 -2 17 -1 17 2
0 8 975 6 995 -2 8 -3 15 -2 15 2 0 4 30 6 67 4 79 -2 87 -9 98 -85 5 -28 9
-54 10 -57 5 -20 19 -89 20 -105 2 -11 19 -85 39 -165 21 -80 39 -156 42 -170
3 -14 21 -79 40 -145 19 -66 37 -127 39 -135 2 -8 8 -26 13 -40 5 -14 10 -27
10 -30 1 -6 1 -8 50 -155 42 -126 168 -449 202 -514 10 -21 16 -41 13 -45 -4
-3 -1 -6 5 -6 6 0 14 -10 18 -22 4 -13 28 -67 55 -120 26 -54 45 -98 42 -98
-11 0 -327 162 -354 181 -15 10 -30 19 -33 19 -4 0 -30 16 -59 35 -28 19 -55
35 -60 35 -7 0 -17 7 -50 36 -7 5 -19 13 -27 17 -19 9 -48 28 -69 45 -43 36
-153 112 -161 112 -6 0 -10 4 -10 9 0 5 -17 22 -38 38 -59 43 -147 119 -241
208 -168 159 -263 262 -414 450 -4 6 -33 44 -63 85 -31 41 -62 83 -70 93 -8 9
-14 21 -14 26 0 5 -4 11 -8 13 -4 2 -23 28 -41 58 -19 30 -36 57 -40 60 -3 3
-17 25 -30 50 -14 25 -27 47 -30 50 -7 6 -30 45 -49 85 -9 17 -24 42 -34 58
-11 15 -17 27 -14 27 2 0 -6 20 -20 46 -13 25 -24 47 -24 49 0 10 116 11 163
1z m2291 1 c7 7 264 6 276 -2 5 -3 10 -3 10 2 0 9 923 8 946 -1 8 -3 14 -2 14
2 0 4 106 7 235 7 129 0 235 -3 235 -7 0 -4 6 -5 14 -2 23 9 116 10 116 1 0
-5 4 -5 10 -2 13 8 326 9 339 0 6 -3 11 -3 11 2 0 8 110 7 118 -2 3 -2 12 0
21 5 10 5 23 5 31 0 13 -8 6 -56 -26 -182 -10 -42 -15 -65 -20 -88 -3 -14 -12
-50 -21 -80 -8 -30 -17 -65 -18 -76 -2 -12 -8 -31 -14 -42 -6 -12 -10 -25 -10
-29 1 -4 0 -15 -3 -23 -3 -8 -34 -103 -69 -210 -58 -179 -120 -347 -171 -460
-11 -25 -38 -82 -59 -128 -21 -45 -39 -86 -40 -90 -1 -4 -14 -27 -28 -52 -15
-25 -33 -58 -41 -75 -8 -16 -22 -38 -30 -48 -8 -10 -15 -22 -15 -27 0 -5 -6
-17 -13 -27 -7 -10 -36 -54 -64 -98 -29 -44 -56 -84 -60 -90 -81 -105 -114
-143 -183 -211 -68 -67 -165 -146 -185 -150 -3 0 -27 -11 -55 -24 -74 -35
-169 -35 -249 -1 -34 14 -62 29 -64 33 -2 5 -8 8 -14 8 -33 0 -308 268 -308
300 0 5 -3 10 -8 10 -4 0 -18 18 -32 40 -14 22 -28 40 -32 40 -5 0 -8 4 -8 9
0 5 -18 37 -40 70 -22 33 -40 64 -40 70 0 5 -4 11 -8 13 -10 4 -29 39 -122
221 -38 76 -70 144 -70 151 0 6 -5 17 -12 24 -6 6 -13 17 -14 24 -2 7 -28 73
-58 146 -30 72 -53 132 -50 132 2 0 -3 14 -12 31 -8 17 -17 38 -19 47 -2 10
-12 42 -24 72 -11 30 -22 67 -25 82 -2 14 -9 35 -15 46 -5 10 -12 30 -15 43
-3 13 -16 62 -31 109 -14 47 -27 94 -29 105 -2 11 -6 31 -10 45 -15 57 -26 99
-42 164 -41 176 -41 174 -2 178 18 2 47 0 65 -3 18 -4 34 -4 37 -2z m3437 3
c19 0 143 0 277 2 133 2 242 0 242 -4 0 -4 6 -5 14 -2 21 8 116 10 116 2 0 -3
8 -4 18 -2 27 7 492 10 492 3 0 -4 17 -3 38 1 21 3 46 4 55 1 15 -6 15 -9 2
-34 -7 -15 -12 -27 -9 -27 2 0 -6 -17 -19 -37 -13 -21 -36 -64 -52 -95 -17
-32 -33 -58 -37 -58 -5 0 -8 -6 -8 -12 0 -7 -25 -51 -55 -96 -30 -46 -55 -86
-55 -89 0 -7 -53 -77 -65 -85 -5 -4 -7 -8 -2 -8 4 0 0 -8 -8 -17 -9 -10 -50
-64 -93 -119 -74 -98 -140 -177 -209 -253 -18 -20 -33 -39 -33 -43 0 -5 -7 -8
-15 -8 -8 0 -15 -4 -15 -8 0 -11 -125 -137 -220 -222 -99 -89 -114 -101 -151
-130 -18 -14 -42 -33 -53 -42 -31 -27 -144 -110 -201 -148 -27 -19 -52 -37
-55 -40 -3 -4 -12 -10 -20 -13 -8 -4 -27 -15 -42 -25 -119 -78 -496 -282 -521
-282 -7 0 3 33 13 40 9 7 60 116 60 129 0 6 5 11 10 11 6 0 10 5 10 11 0 6 14
40 30 76 17 36 40 89 51 117 12 28 31 76 44 106 38 91 96 248 100 267 2 10 4
19 5 21 2 1 3 5 4 10 1 4 7 17 14 30 7 12 10 22 7 22 -3 0 -1 8 4 18 6 11 12
30 15 43 2 13 10 38 16 54 7 17 14 37 15 45 1 13 37 129 52 170 3 8 7 25 9 37
1 13 6 33 10 45 5 13 8 25 9 28 2 12 67 278 76 310 5 19 11 46 13 60 3 14 12
59 21 100 8 41 17 87 19 103 3 28 23 50 36 42 4 -2 22 -5 41 -5z"/>
</g>
</svg>
